<?xml version="1.0" standalone="no"?>
<!DOCTYPE svg PUBLIC "-//W3C//DTD SVG 20010904//EN"
 "http://www.w3.org/TR/2001/REC-SVG-20010904/DTD/svg10.dtd">
<svg version="1.0" xmlns="http://www.w3.org/2000/svg"
 width="250.000000pt" height="249.000000pt" viewBox="0 0 250.000000 249.000000"
 preserveAspectRatio="xMidYMid meet">

<g transform="translate(0.000000,249.000000) scale(0.100000,-0.100000)"
fill="#000000" stroke="none">
<path d="M1150 2332 l-95 -57 -199 -5 -200 -5 -78 -135 c-42 -74 -86 -146 -97
-161 -11 -15 -63 -51 -115 -79 -62 -35 -96 -60 -100 -74 -3 -11 -6 -69 -6
-128 l0 -108 -95 -165 -96 -166 74 -127 c126 -216 120 -198 112 -322 l-7 -108
106 -63 c117 -69 106 -56 226 -264 l76 -130 194 -5 195 -5 93 -58 c51 -31 96
-57 100 -57 4 0 52 26 107 58 l100 57 200 5 199 5 78 135 c43 74 87 147 97
161 11 14 65 52 120 83 l101 57 0 124 0 124 95 166 95 165 -87 152 -88 151 -5
131 -5 130 -104 62 c-114 69 -107 60 -222 259 l-75 130 -190 5 -189 5 -97 58
c-53 31 -103 57 -110 56 -7 0 -56 -26 -108 -57z m955 -580 c154 -268 280 -494
280 -502 0 -9 -126 -235 -280 -503 l-280 -486 -575 0 -575 0 -280 486 c-154
268 -280 494 -280 503 0 8 126 234 280 502 l280 487 575 0 575 0 280 -487z"/>
<path d="M815 1796 c-176 -44 -305 -170 -350 -341 -61 -235 85 -487 319 -550
101 -27 230 -17 318 24 200 95 307 317 253 524 -45 173 -165 292 -339 337 -89
23 -129 24 -201 6z m125 -266 l0 -40 85 0 85 0 0 -30 c0 -27 -3 -30 -29 -30
-20 0 -32 -6 -36 -19 -3 -10 -25 -47 -50 -82 l-45 -64 23 -18 c12 -10 47 -35
78 -56 50 -33 55 -39 46 -59 -6 -12 -14 -22 -19 -22 -10 0 -98 57 -140 92
l-28 22 -27 -22 c-43 -35 -131 -92 -141 -92 -5 0 -13 10 -19 22 -9 20 -4 26
46 59 31 21 66 46 79 56 l23 19 -35 44 -36 45 22 17 c22 16 23 15 54 -20 30
-35 33 -36 51 -20 10 10 29 36 42 58 l22 40 -140 0 -141 0 0 30 0 30 85 0 85
0 0 40 c0 38 2 40 30 40 28 0 30 -2 30 -40z"/>
<path d="M1487 1589 c-45 -11 -97 -36 -97 -48 0 -5 6 -26 14 -47 58 -167 4
-376 -135 -515 -75 -75 -75 -68 7 -151 83 -83 196 -128 325 -128 173 0 332
103 409 265 54 114 54 273 -2 392 -46 100 -183 206 -299 232 -53 13 -170 12
-222 0z m177 -283 c18 -7 43 -27 55 -44 19 -27 21 -43 21 -161 l0 -131 -25 0
c-24 0 -25 3 -25 60 l0 60 -75 0 -75 0 0 -60 c0 -57 -1 -60 -25 -60 l-25 0 0
131 c0 118 2 134 21 161 22 30 69 57 102 58 10 0 33 -6 51 -14z"/>
<path d="M1587 1253 c-21 -6 -47 -53 -47 -88 0 -25 1 -25 76 -25 l77 0 -6 42
c-8 62 -42 86 -100 71z"/>
</g>
</svg>
